<svg viewBox="0 0 800 500" preserveAspectRatio="none" xmlns="http://www.w3.org/2000/svg" xmlns:xlink="http://www.w3.org/1999/xlink" width="100%" id="blobSvg">
  <g transform="translate(127.87330627441406, 4.2619476318359375)">
    <path class="blob" d="M465,292.5Q455,335,422.5,362.5Q390,390,360,417Q330,444,290,421Q250,398,212.5,414Q175,430,155.5,397Q136,364,108.5,342Q81,320,103,285Q125,250,100,213.5Q75,177,78,129Q81,81,128.5,76Q176,71,213,62Q250,53,278.5,82.5Q307,112,334.5,125Q362,138,365,169.5Q368,201,421.5,225.5Q475,250,465,292.5Z" fill="#808080"></path>
  </g>
</svg>